<svg width="256" height="256" viewBox="0 0 256 256" fill="none" xmlns="http://www.w3.org/2000/svg">
<path d="M62.4596 59.2289C56.4169 61.5755 54.9903 65.8102 58.1796 71.9329C58.281 72.1302 58.2249 72.2449 58.0116 72.2769C49.4196 73.5809 44.1076 78.9409 48.3716 87.5969" stroke="#898D99" stroke-width="2"/>
<path d="M48.3713 87.5969L45.8593 88.9489C45.6247 89.0715 45.4247 89.2395 45.2593 89.4529C41.4993 94.2529 41.4673 98.2688 40.2593 103.877C31.1153 146.117 45.6513 188.461 82.2834 212.541C83.2434 213.173 84.4353 213.093 85.0993 213.853" stroke="#F5F5F2" stroke-width="2"/>
<path d="M85.0996 213.853C86.5076 214.701 87.3983 215.448 87.7716 216.093" stroke="#93C0C7" stroke-width="2"/>
<path d="M205.971 75.1008L204.123 77.1968" stroke="#F5F5F2" stroke-width="2"/>
<path d="M204.124 77.197L201.668 76.573C201.401 76.5037 201.316 76.341 201.412 76.085C203.662 69.8237 201.884 65.2557 196.076 62.381C195.841 62.2637 195.782 62.0877 195.9 61.8531C198.34 56.8931 196.588 51.6131 191.012 50.2531C188.804 49.7171 186.292 50.421 184.012 50.965C183.686 51.045 183.59 50.9304 183.724 50.621C184.95 47.7944 184.644 45.3837 182.804 43.389" stroke="#818692" stroke-width="2"/>
<path d="M182.804 43.3887C179.124 40.5487 174.884 42.0047 171.1 43.9327C170.801 44.0874 170.652 43.994 170.652 43.6527C170.644 41.8767 171.252 40.3647 170.756 38.7487C169.228 33.7247 162.396 32.3407 159.388 37.0767C159.185 37.3967 159.004 37.3834 158.844 37.0367C155.916 30.7247 147.452 28.8287 143.268 35.0047C143.087 35.2714 142.879 35.2954 142.644 35.0767C137.332 30.1327 131.628 28.5007 126.292 34.7567C126.121 34.9594 125.959 34.954 125.804 34.7407C122.204 29.8527 115.972 29.9487 112.692 35.4207C112.516 35.7087 112.343 35.7087 112.172 35.4207C110.033 31.8207 106.999 30.1567 103.068 30.4287C100.673 30.594 98.428 31.498 96.332 33.1407" stroke="#898D99" stroke-width="2"/>
<path d="M182.804 43.389L182.324 46.245C182.308 46.3517 182.247 46.4051 182.14 46.4051H181.9C181.783 46.4051 181.713 46.4637 181.692 46.581C181.569 47.285 181.396 47.981 181.172 48.669C181.114 48.8557 181.039 48.861 180.948 48.685C180.921 48.6317 180.898 48.5597 180.876 48.469C180.828 48.2184 180.724 48.1917 180.564 48.389C180.169 48.8957 179.719 49.3437 179.212 49.733C178.796 50.053 178.679 49.9677 178.86 49.477L179.1 48.821C179.142 48.7107 179.144 48.5893 179.107 48.4775C179.069 48.3656 178.995 48.2701 178.895 48.2071C178.795 48.144 178.677 48.1174 178.56 48.1316C178.443 48.1458 178.334 48.2 178.252 48.285L175.948 50.621C175.7 50.8737 175.368 51.0298 175.012 51.0611C173.337 51.2051 171.7 51.5544 170.1 52.1091C169.881 52.1837 169.756 52.3357 169.724 52.565L169.5 54.117C169.487 54.2204 169.442 54.3171 169.372 54.3943C169.302 54.4715 169.21 54.5255 169.108 54.549C166.796 55.125 165.028 57.0131 162.14 58.1571C161.9 58.2531 161.668 58.2344 161.444 58.1011C159.7 57.0531 158.14 57.077 157.364 59.197C157.268 59.4584 157.087 59.549 156.82 59.469C154.09 58.637 151.319 58.3064 148.508 58.477C142.06 58.869 136.98 64.213 131.02 66.029C124.58 67.997 118.252 64.845 110.788 61.925C105.388 59.805 101.508 59.3331 97.0282 62.8051C96.3082 63.3651 94.2522 63.669 93.0602 63.517C84.6602 62.413 78.8762 67.349 75.8842 74.781C75.7935 75.0157 75.7748 75.253 75.8282 75.493C76.0682 76.573 75.3961 77.173 74.3481 77.389C69.2548 78.4717 66.8468 81.5837 67.1242 86.725C67.2202 88.413 68.1002 90.069 68.5642 91.789C68.5975 91.9144 68.6014 92.0459 68.5755 92.173C68.5496 92.3002 68.4945 92.4196 68.4146 92.5219C68.3348 92.6242 68.2324 92.7066 68.1154 92.7627C67.9984 92.8187 67.8699 92.8469 67.7401 92.845C64.6681 92.813 60.2762 92.445 57.6762 93.373C53.1482 94.989 51.7801 102.645 51.1961 107.525C51.0441 108.789 51.5722 110.317 49.8202 110.613C49.7188 110.629 49.6655 110.69 49.6602 110.797C49.6602 110.856 49.6628 110.928 49.6682 111.013C49.6713 111.047 49.6637 111.081 49.6464 111.11C49.6291 111.139 49.603 111.162 49.5719 111.175C49.5407 111.188 49.5062 111.192 49.4732 111.184C49.4402 111.176 49.4104 111.159 49.3881 111.133C49.1855 110.914 49.0655 110.658 49.0282 110.365C49.0161 110.254 48.9738 110.149 48.906 110.062C48.8381 109.974 48.7474 109.907 48.6441 109.869L46.9082 109.213C46.6575 109.122 46.4948 108.949 46.4202 108.693C46.0575 107.525 45.3321 106.557 44.2441 105.789" stroke="#0C162D" stroke-width="2"/>
<path d="M44.2439 105.789C44.2119 104.008 44.8652 102.41 46.2039 100.997C46.2471 100.95 46.2802 100.895 46.3009 100.835C46.3217 100.775 46.3296 100.712 46.3243 100.648C46.3191 100.585 46.3007 100.524 46.2703 100.468C46.2399 100.412 46.1982 100.364 46.1479 100.325C45.6732 99.9675 45.1799 99.6342 44.6679 99.3248C44.4599 99.1968 44.3132 99.0182 44.2279 98.7889C42.5159 94.1969 46.8119 93.2609 50.1479 93.0449C54.8679 92.7329 49.7319 88.5969 48.3719 87.5969" stroke="#80858D" stroke-width="2"/>
<path d="M62.459 59.2286L65.251 59.0206C65.507 58.9993 65.6403 58.8606 65.651 58.6046C65.8803 53.1113 68.7656 50.8526 74.307 51.8286C74.6323 51.8873 74.811 51.7539 74.843 51.4286C75.083 49.3166 75.203 47.0526 76.747 45.5246C78.475 43.8233 80.651 43.2739 83.275 43.8766C83.4212 43.9096 83.5742 43.8888 83.7052 43.8181C83.8363 43.7474 83.9364 43.6317 83.987 43.4926C85.6403 38.954 88.859 37.4126 93.643 38.8686C94.379 39.0926 94.7336 38.818 94.707 38.0446C94.6643 37.0366 95.2057 35.402 96.331 33.1406" stroke="#80858D" stroke-width="2"/>
<path d="M53.06 129.173C51.0546 136.111 52.9666 141.557 58.7959 145.509C61.4946 147.333 64.5 147.903 67.812 147.221" stroke="#CC9F8F" stroke-width="2"/>
<path d="M67.8115 147.221L72.1635 146.445C72.4675 146.392 72.6649 146.512 72.7555 146.805C75.1182 154.533 79.4008 161.053 85.6035 166.365" stroke="#BD998C" stroke-width="2"/>
<path d="M85.6035 166.365C95.2515 174.237 107.796 177.997 120.084 179.381" stroke="#CC9F8F" stroke-width="2"/>
<path d="M120.084 179.38L119.9 183.189" stroke="#B28E89" stroke-width="2"/>
<path d="M119.9 183.189C119.831 184.853 119.164 185.949 117.9 186.477" stroke="#BD998C" stroke-width="2"/>
<path d="M117.9 186.477L110.004 188.197" stroke="#B28E89" stroke-width="2"/>
<path d="M110.004 188.197C109.711 188.528 109.594 188.557 109.652 188.285" stroke="#8EC8C6" stroke-width="2"/>
<path d="M109.653 188.284L103.893 190.108" stroke="#86A8AF" stroke-width="2"/>
<path d="M103.892 190.109C93.8596 194.261 88.6196 204.453 85.0996 213.853" stroke="#8AB8BB" stroke-width="2"/>
<path d="M204.124 77.1969C210.212 80.5169 210.62 85.8049 207.78 91.8289C207.657 92.0795 207.703 92.2955 207.916 92.4769C211.559 95.6289 211.62 98.8369 208.1 102.101C207.897 102.293 207.881 102.501 208.052 102.725L210.052 105.357C210.235 105.598 210.351 105.885 210.388 106.189C210.788 109.677 209.268 111.741 205.828 112.381C205.497 112.44 205.425 112.61 205.612 112.893C207.585 115.874 207.316 118.621 204.804 121.133C204.527 121.41 204.084 121.506 203.476 121.421C203.172 121.384 202.993 121.514 202.94 121.813C202.545 123.84 201.039 125.288 198.42 126.157" stroke="#787E86" stroke-width="2"/>
<path d="M198.42 126.157L194.556 124.437C194.505 124.413 194.448 124.404 194.392 124.409C194.336 124.415 194.283 124.436 194.238 124.47C194.193 124.503 194.158 124.548 194.136 124.6C194.115 124.652 194.108 124.709 194.116 124.765C195.044 131.349 188.276 128.941 185.46 131.397C184.862 131.914 184.268 132.493 183.676 133.133C183.54 133.281 183.363 133.386 183.167 133.433C182.972 133.48 182.766 133.467 182.578 133.397C182.39 133.326 182.227 133.201 182.11 133.037C181.993 132.873 181.929 132.678 181.924 132.477L181.628 122.261C181.617 121.94 181.689 121.621 181.836 121.333C183.484 118.077 180.676 118.197 179.524 116.317C177.372 112.797 178.972 111.453 180.38 108.285C180.403 108.236 180.414 108.183 180.411 108.129C180.409 108.075 180.393 108.022 180.366 107.975C180.338 107.928 180.3 107.888 180.254 107.858C180.207 107.829 180.155 107.81 180.1 107.805C176.041 107.394 173.774 105.25 173.3 101.373C173.124 99.9087 173.996 98.2767 174.412 96.8207C174.486 96.5594 174.436 96.3221 174.26 96.1087L172.348 93.7967C172.185 93.608 172.072 93.3796 172.02 93.1327L171.364 90.2367C171.294 89.9434 171.137 89.8847 170.892 90.0607C169.233 91.2234 167.23 91.762 164.884 91.6767" stroke="#3F1F29" stroke-width="2"/>
<path d="M164.884 91.6771L162.924 91.2531C162.647 91.1945 162.417 91.0558 162.236 90.8371L160.188 88.4531C159.985 88.2185 159.759 88.1918 159.508 88.3731C158.06 89.4211 156.492 90.8051 154.972 91.4291C151.028 93.0611 145.02 92.8051 142.452 88.8371C141.588 87.5011 140.212 81.0611 138.388 81.7571C138.236 81.8146 138.1 81.9067 137.991 82.0262C137.881 82.1456 137.8 82.2891 137.756 82.4451L136.412 87.1811" stroke="#4A2B2C" stroke-width="2"/>
<path d="M136.412 87.1805C135.345 90.1085 133.444 91.7138 130.708 91.9965C125.804 92.5005 125.06 87.5325 124.292 84.0205C124.251 83.8238 124.147 83.646 123.995 83.514C123.844 83.3821 123.653 83.3033 123.453 83.2897C123.253 83.2761 123.053 83.3285 122.886 83.4387C122.718 83.549 122.591 83.7112 122.524 83.9005C121.196 87.5085 121.556 91.2925 116.5 91.9885C107.116 93.2765 109.676 86.6205 106.684 81.5965C106.648 81.5363 106.598 81.4867 106.537 81.4525C106.477 81.4183 106.408 81.4008 106.337 81.4016C106.267 81.4024 106.198 81.4215 106.136 81.4571C106.075 81.4927 106.024 81.5435 105.988 81.6045C105.209 82.9485 104.708 84.4045 104.484 85.9725C103.396 93.7645 95.1636 94.0365 89.7796 90.8765C89.5653 90.7512 89.3281 90.6698 89.0818 90.637C88.8356 90.6042 88.5851 90.6207 88.3449 90.6854C88.1046 90.7501 87.8794 90.8618 87.6821 91.0141C87.4849 91.1663 87.3195 91.3561 87.1956 91.5725C85.6703 94.2391 83.3636 95.2818 80.2756 94.7005C80.2204 94.6904 80.1634 94.6958 80.111 94.7162C80.0586 94.7365 80.0129 94.7709 79.9789 94.8157C79.9449 94.8604 79.924 94.9138 79.9185 94.9697C79.9129 95.0256 79.923 95.082 79.9476 95.1325C81.3716 97.9698 81.6143 100.647 80.6756 103.164" stroke="#5E3935" stroke-width="2"/>
<path d="M80.6756 103.165C78.7929 105.89 76.2489 107.005 73.0436 106.509C72.7129 106.456 72.6116 106.584 72.7396 106.893C74.1876 110.365 75.5076 114.245 72.1076 117.125C71.9049 117.301 71.8142 117.52 71.8355 117.781C72.1235 121.338 72.1476 124.901 71.9076 128.469C71.9063 128.527 71.8842 128.582 71.8453 128.625C71.8064 128.668 71.7533 128.695 71.6959 128.702C71.6384 128.709 71.5805 128.695 71.5326 128.662C71.4848 128.63 71.4503 128.581 71.4355 128.525C68.8115 120.325 58.4756 119.173 54.5076 126.885C54.0382 127.802 53.5556 128.565 53.0596 129.173" stroke="#59302F" stroke-width="2"/>
<path d="M53.0601 129.173C48.4281 127.037 48.8521 124.061 51.2521 120.669C51.4121 120.45 51.3588 120.325 51.0921 120.293C47.7481 119.856 46.2041 117.997 46.4601 114.717C46.4868 114.354 46.6175 114.032 46.8521 113.749L48.3401 111.941C48.5214 111.717 48.4761 111.56 48.2041 111.469C45.4788 110.53 44.1588 108.637 44.2441 105.789" stroke="#787E86" stroke-width="2"/>
<path d="M86.772 130.837C85.812 130.197 85.0547 129.821 84.5 129.709C84.4366 129.699 84.3716 129.708 84.3134 129.735C84.2552 129.762 84.2066 129.806 84.1738 129.861C84.141 129.917 84.1255 129.98 84.1295 130.045C84.1335 130.109 84.1567 130.17 84.196 130.221C85.8867 132.285 87.0814 134.959 87.7801 138.245C87.9454 139.039 88.3747 139.349 89.068 139.173" stroke="#62322D" stroke-width="2"/>
<path d="M89.0684 139.173C90.8364 142.357 98.3724 144.269 102.284 143.709" stroke="#D6A79B" stroke-width="2"/>
<path d="M102.283 143.709C102.63 143.714 102.891 143.634 103.067 143.469" stroke="#C29285" stroke-width="2"/>
<path d="M108.172 152.645C108.241 159.29 110.708 164.218 115.572 167.429" stroke="#6E2A23" stroke-width="2"/>
<path d="M115.572 167.429C122.7 171.805 135.284 171.365 141.86 166.109" stroke="#852E27" stroke-width="2"/>
<path d="M132.852 179.509C128.612 180.021 124.356 179.978 120.084 179.38" stroke="#934032" stroke-width="2"/>
<path d="M85.6035 166.365C84.8728 164.536 83.5822 162.92 81.7315 161.517C81.5075 161.346 81.3742 161.12 81.3315 160.837C81.1342 159.509 80.6541 158.301 79.8915 157.213C77.7048 154.093 76.0995 150.976 75.0755 147.861C74.9321 147.431 74.8434 146.982 74.8115 146.525C74.4115 140.989 72.3315 133.349 67.2995 129.997C65.0115 128.469 61.5395 130.757 60.3075 132.573C57.8515 136.197 60.7635 139.829 64.7315 140.109C65.0035 140.125 65.2408 140.04 65.4435 139.853C66.4941 138.866 67.2355 137.674 67.6675 136.277C67.7092 136.141 67.6996 135.994 67.6407 135.864C67.5817 135.735 67.4775 135.631 67.3475 135.573C66.1795 135.056 64.9208 134.768 63.5715 134.709C63.3748 134.698 63.1885 134.617 63.0458 134.481C62.903 134.345 62.8131 134.163 62.7919 133.968C62.7708 133.772 62.8199 133.575 62.9304 133.412C63.0409 133.249 63.2057 133.13 63.3955 133.077C71.9315 130.837 71.8835 139.029 72.6995 144.541C72.7475 144.845 72.6301 145.061 72.3475 145.189L67.8115 147.221" stroke="#9E4C35" stroke-width="2"/>
<path d="M146.821 223.109C143.722 218.965 140.658 215.674 137.629 213.237C133.949 210.287 129.722 208.018 124.949 206.429C117.405 203.917 112.077 202.141 108.093 195.429C106.866 193.354 105.466 191.581 103.893 190.109" stroke="#257484" stroke-width="2"/>
<path d="M109.651 188.284C109.499 188.772 109.355 189.076 109.547 189.572C113.123 199.028 123.035 202.18 132.307 200.46C139.235 199.164 142.259 195.596 145.323 189.756C145.419 189.559 145.387 189.388 145.227 189.244C144.833 188.892 144.366 188.69 143.827 188.636" stroke="#29848F" stroke-width="2"/>
<path d="M102.54 221.621C102.044 221.013 101.342 220.474 100.436 220.005C100.142 219.855 100.001 219.615 100.012 219.285C100.23 211.786 99.9824 204.309 99.2677 196.853C99.2418 196.595 99.3069 196.337 99.4517 196.125C99.633 195.853 99.6197 195.639 99.4117 195.485C99.0384 195.202 98.7931 195.287 98.6757 195.741C96.7771 202.887 95.3957 210.135 94.5317 217.485C94.4997 217.767 94.3451 217.869 94.0677 217.789C93.2891 217.549 92.5344 217.469 91.8037 217.549" stroke="#257484" stroke-width="2"/>
<path d="M143.972 188.069C144.137 188.138 144.089 188.327 143.828 188.637" stroke="#4D4A52" stroke-width="2"/>
<path d="M143.828 188.637C137.26 201.909 121.26 202.373 112.02 191.653C110.98 190.448 110.308 189.296 110.004 188.197" stroke="#556969" stroke-width="2"/>
<path d="M117.9 186.477C117.404 187.538 116.116 188.013 114.036 187.901C112.553 187.815 111.905 188.511 112.092 189.989C112.564 193.701 120.852 197.293 124.02 197.853C124.356 197.911 124.532 197.77 124.548 197.429L124.572 197.061C124.576 196.957 124.621 196.858 124.696 196.785C124.772 196.712 124.874 196.671 124.98 196.669L129.02 196.581C129.144 196.578 129.266 196.547 129.377 196.492C129.488 196.436 129.586 196.356 129.662 196.258C129.739 196.16 129.793 196.046 129.82 195.925C129.847 195.804 129.847 195.678 129.82 195.557C129.025 192.053 127.577 188.741 125.476 185.621C123.876 183.253 122.017 182.442 119.9 183.189" stroke="#843B2F" stroke-width="2"/>
<path d="M164.884 91.6766C167.716 93.4206 170.086 95.4179 171.996 97.6686C172.177 97.8819 172.228 98.1219 172.148 98.3886C171.204 101.685 174.372 105.125 171.676 107.701C171.484 107.882 171.433 108.095 171.524 108.341C171.95 109.482 172.577 110.522 173.404 111.461C173.596 111.674 173.737 111.917 173.828 112.189C174.116 113.021 174.74 114.087 175.7 115.389C176.628 116.637 177.286 118.685 177.676 121.533C177.713 121.799 177.868 121.951 178.14 121.989L178.98 122.101C179.433 122.165 179.665 122.429 179.676 122.893L179.78 130.957C179.785 131.271 179.676 131.541 179.452 131.765C178.081 133.146 177.068 134.751 176.412 136.581C176.393 136.633 176.39 136.691 176.402 136.746C176.415 136.801 176.443 136.852 176.484 136.893L176.732 137.149C176.838 137.25 176.892 137.375 176.892 137.525C176.996 144.205 175.764 148.685 174.324 154.173C173.404 157.701 170.22 161.021 167.9 163.749C167.818 163.846 167.758 163.96 167.727 164.082C167.695 164.204 167.691 164.33 167.716 164.453L168.068 166.085" stroke="#843B2F" stroke-width="2"/>
<path d="M134.348 179.277L132.852 179.509" stroke="#843B2F" stroke-width="2"/>
<path d="M132.852 179.508C132.937 179.162 133.081 178.887 133.284 178.684C133.47 178.498 133.529 178.276 133.46 178.02C131.892 172.42 138.02 171.964 141.18 169.572C141.289 169.49 141.378 169.384 141.439 169.262C141.5 169.14 141.532 169.005 141.532 168.868C141.532 167.78 141.966 166.951 142.836 166.38C142.948 166.311 142.956 166.231 142.86 166.14C142.796 166.076 142.729 166.007 142.66 165.932C142.601 165.863 142.537 165.86 142.468 165.924L142.068 166.332C142.004 166.396 141.942 166.394 141.884 166.324C141.836 166.271 141.828 166.199 141.86 166.108" stroke="#9E4C35" stroke-width="2"/>
<path d="M141.86 166.109C141.844 166.034 141.828 165.957 141.812 165.877" stroke="#762924" stroke-width="2"/>
<path d="M141.812 165.877C145.497 162.512 147.148 158.384 146.764 153.493C146.737 153.216 146.604 153.005 146.364 152.861C145.569 152.386 144.833 152.338 144.156 152.717" stroke="#5F251F" stroke-width="2"/>
<path d="M144.156 152.716C133.452 155.218 123.084 155.404 113.052 153.276C112.54 153.17 112.126 153.215 111.812 153.412" stroke="#C7A298" stroke-width="2"/>
<path d="M111.812 153.413L111.052 152.701" stroke="#5F251F" stroke-width="2"/>
<path d="M121.012 153.396C127.95 154.127 134.793 153.727 141.54 152.196C141.79 152.138 141.961 151.988 142.052 151.748C142.484 150.634 143.412 149.687 144.836 148.908C147.534 147.431 148.74 145.7 148.452 143.716" stroke="#9E4C35" stroke-width="2"/>
<path d="M148.451 143.716L153.043 144.356" stroke="#B38C82" stroke-width="2"/>
<path d="M153.044 144.357C157.044 143.901 160.34 144.309 162.932 140.141" stroke="#C7A298" stroke-width="2"/>
<path d="M162.932 140.14C164.116 138.85 164.884 137.178 165.236 135.124C165.289 134.826 165.452 134.615 165.724 134.492C166.652 134.066 167.529 133.543 168.356 132.924C168.985 132.45 168.905 132.236 168.116 132.284L165.9 132.428C165.719 132.439 165.541 132.392 165.389 132.294C165.237 132.196 165.121 132.052 165.057 131.884C164.992 131.715 164.984 131.53 165.032 131.356C165.08 131.182 165.182 131.028 165.324 130.916C166.518 129.999 167.841 129.322 169.292 128.884C169.332 128.872 169.368 128.848 169.395 128.815C169.422 128.783 169.44 128.744 169.445 128.702C169.451 128.66 169.445 128.618 169.428 128.579C169.411 128.541 169.383 128.508 169.348 128.484C169.113 128.346 168.833 128.399 168.508 128.644" stroke="#532D29" stroke-width="2"/>
<path d="M168.508 128.645C171.132 123.663 171.22 120.327 168.772 118.637" stroke="#9E4C35" stroke-width="2"/>
<path d="M168.772 118.637C168.604 111.501 160.06 106.565 153.804 105.293" stroke="#532D29" stroke-width="2"/>
<path d="M153.803 105.292C154.006 104.674 153.646 104.244 152.723 104.004C152.366 103.908 152.342 103.756 152.651 103.548C156.171 101.132 154.779 97.8123 152.043 95.0763C151.957 94.9905 151.855 94.9229 151.742 94.8775C151.63 94.8322 151.509 94.81 151.387 94.8123C143.163 95.1163 142.579 94.5563 138.443 87.8203" stroke="#9E4C35" stroke-width="2"/>
<path d="M136.412 87.1805C137.308 86.8338 137.985 87.0471 138.444 87.8205" stroke="#A4543A" stroke-width="2"/>
<path d="M138.443 87.8203C136.115 91.1003 133.203 94.5483 128.795 94.0683C128.789 94.0692 128.784 94.0719 128.779 94.0759C128.774 94.08 128.771 94.0853 128.769 94.0912C128.768 94.0971 128.768 94.1034 128.769 94.1092C128.771 94.1151 128.775 94.1203 128.779 94.1243L129.051 94.2683C129.286 94.391 129.395 94.5857 129.379 94.8523C129.243 96.8123 129.043 98.2363 129.299 100.404C129.563 102.62 128.659 104.636 128.611 106.596C128.537 109.706 128.545 112.815 128.635 115.924C128.731 119.116 128.195 122.58 128.299 125.956C128.411 129.956 127.811 132.812 127.003 136.436C126.95 136.682 126.982 136.916 127.099 137.14C127.475 137.844 125.915 138.588 125.443 138.996" stroke="#B35A3E" stroke-width="2"/>
<path d="M125.444 138.997C122.076 137.157 123.66 144.333 124.34 145.525" stroke="#DB9171" stroke-width="2"/>
<path d="M124.34 145.525C122.686 147.2 122.601 148.205 124.084 148.541" stroke="#A4543A" stroke-width="2"/>
<path d="M124.084 148.541L124.46 151.845C124.497 152.149 124.361 152.29 124.052 152.269C122.601 152.167 121.588 152.543 121.012 153.397" stroke="#B35A3E" stroke-width="2"/>
<path d="M121.012 153.396L112.436 152.34C112.174 152.308 111.921 152.343 111.676 152.444L111.052 152.7" stroke="#A4543A" stroke-width="2"/>
<path d="M111.052 152.701C110.305 152.407 109.345 152.389 108.172 152.645" stroke="#743328" stroke-width="2"/>
<path d="M108.172 152.645C108.311 150.751 107.943 149.178 107.068 147.925C106.18 146.661 104.772 146.405 103.396 145.701C103.167 145.583 103.028 145.399 102.98 145.149C102.884 144.679 102.913 144.119 103.068 143.469" stroke="#B35A3E" stroke-width="2"/>
<path d="M103.068 143.469C105.874 143.101 107.695 141.383 108.532 138.317C109.29 135.533 109.255 133.33 108.428 131.709" stroke="#C89A8B" stroke-width="2"/>
<path d="M108.427 131.708C107.435 126.212 103.563 122.82 97.8675 123.348C93.3715 123.764 89.6728 126.26 86.7715 130.836" stroke="#673B32" stroke-width="2"/>
<path d="M86.7711 130.837C86.4671 130.058 86.4671 128.933 86.7711 127.461C87.0431 126.133 86.6164 125.354 85.4911 125.125C85.2388 125.072 85.0052 124.96 84.8111 124.797C81.0671 121.789 81.0031 119.701 79.7231 115.381C79.4938 114.608 79.8377 113.77 80.7551 112.869C80.9471 112.688 81.0191 112.466 80.9711 112.205L80.5951 109.933C80.5471 109.661 80.6324 109.437 80.8511 109.261C81.5071 108.733 81.6271 108.152 81.2111 107.517C81.1351 107.397 81.0832 107.265 81.0585 107.126C81.0338 106.987 81.0367 106.846 81.0671 106.709C81.2004 106.122 81.0777 105.626 80.6991 105.221C80.5391 105.045 80.4991 104.848 80.5791 104.629C80.7124 104.24 80.7444 103.752 80.6751 103.165" stroke="#B35A3E" stroke-width="2"/>
<path d="M168.748 214.093C163.836 201.173 158.092 190.981 143.972 188.069" stroke="#86A8AF" stroke-width="2"/>
<path d="M143.972 188.069L135.852 186.357C135.517 186.285 135.215 186.105 134.992 185.845C134.769 185.585 134.638 185.259 134.62 184.917L134.348 179.277" stroke="#B28E89" stroke-width="2"/>
<path d="M134.348 179.276C146.66 177.628 158.252 174.036 168.068 166.084" stroke="#BD998C" stroke-width="2"/>
<path d="M168.068 166.084C174.234 160.911 178.444 154.404 180.7 146.564C180.78 146.292 180.956 146.199 181.228 146.284C190.087 148.983 196.282 146.346 199.812 138.372C201.626 134.276 201.162 130.204 198.42 126.156" stroke="#B28E89" stroke-width="2"/>
<path d="M111.812 153.412C112.868 160.22 129.876 159.916 134.708 159.1C139.47 158.306 142.62 156.178 144.156 152.716" stroke="#978086" stroke-width="2"/>
<path d="M141.812 165.877C135.108 163.981 127.972 163.437 121.348 165.837C119.572 166.477 117.647 167.007 115.572 167.429" stroke="#460712" stroke-width="2"/>
<path d="M101.548 143.309C101.292 143.522 101.538 143.655 102.284 143.709" stroke="#EBE8E8" stroke-width="2"/>
<path d="M108.428 131.709C108.615 137.629 106.321 141.495 101.548 143.309" stroke="#77737A" stroke-width="2"/>
<path d="M101.547 143.308C93.4831 144.596 88.8592 133.924 94.7552 128.476C94.8798 128.36 95.0296 128.274 95.1931 128.224C95.3567 128.175 95.5296 128.163 95.6986 128.191C95.8677 128.219 96.0284 128.285 96.1685 128.384C96.3086 128.484 96.4245 128.614 96.5072 128.764L96.9871 129.644C97.2165 130.066 97.4031 130.05 97.5471 129.596C98.7791 125.684 93.5232 127.644 92.2192 128.588C88.4058 131.362 87.3552 134.89 89.0672 139.172" stroke="#8A8890" stroke-width="2"/>
<path d="M87.7715 216.093C89.1742 216.285 90.5181 216.77 91.8035 217.549" stroke="#80ABB1" stroke-width="2"/>
<path d="M91.8037 217.548C95.169 219.234 98.7477 220.591 102.54 221.62" stroke="#7C9BA5" stroke-width="2"/>
<path d="M102.54 221.62C116.828 226.196 131.588 226.692 146.82 223.108" stroke="#80ABB1" stroke-width="2"/>
<path d="M146.819 223.109C154.099 221.104 161.409 218.098 168.747 214.093" stroke="#7C9BA5" stroke-width="2"/>
<path d="M168.748 214.093C194.881 197.17 210.74 173.607 216.324 143.405C219.868 124.245 217.924 106.677 212.068 87.7727C210.06 80.6367 204.66 73.0447 203.66 71.4367" stroke="#E1DFDC" stroke-width="2"/>
<path d="M162.932 140.14C165.332 133.74 163.004 128.564 156.252 126.756" stroke="#8A8890" stroke-width="2"/>
<path d="M156.252 126.757C155.654 126.367 154.996 126.194 154.276 126.237C153.78 126.263 153.769 126.351 154.244 126.501L156.036 127.061" stroke="#245B64" stroke-width="2"/>
<path d="M156.035 127.061C158.307 128.202 159.633 129.877 160.011 132.085C161.046 138.16 158.494 142.138 152.355 144.021" stroke="#8A8890" stroke-width="2"/>
<path d="M152.355 144.021C147.891 143.584 144.947 140.928 143.523 136.053" stroke="#77737A" stroke-width="2"/>
<path d="M153.043 144.356C152.809 144.298 152.579 144.186 152.355 144.02" stroke="#EBE8E8" stroke-width="2"/>
<path d="M153.804 105.292C150.678 104.647 148.036 104.7 145.876 105.452C143.388 106.324 141.756 108.788 143.668 111.1C143.817 111.287 144.014 111.391 144.26 111.412C145.102 111.482 145.689 111.468 146.02 111.372C154.188 109.004 161.708 113.292 168.772 118.636" stroke="#62322D" stroke-width="2"/>
<path d="M168.508 128.645L164.924 129.661C164.646 129.741 164.414 129.669 164.228 129.445C156.524 120.037 143.076 122.541 143.524 136.053" stroke="#62322D" stroke-width="2"/>
<path d="M143.523 136.053C143.038 139.962 144.681 142.517 148.451 143.717" stroke="#C29285" stroke-width="2"/>
<path d="M124.084 148.54C130.676 149.484 131.86 142.068 126.1 139.42" stroke="#9E4C35" stroke-width="2"/>
<path d="M126.099 139.421C126.051 139.528 125.833 139.386 125.443 138.997" stroke="#D5886B" stroke-width="2"/>
<path d="M126.1 139.42C126.793 142.258 126.207 144.292 124.34 145.524" stroke="#C68368" stroke-width="2"/>
<path d="M156.252 126.756C156.108 126.874 156.036 126.975 156.036 127.06" stroke="#98D0D2" stroke-width="2"/>
<path d="M73.091 55.3003L70.419 55.7003C70.1634 55.7397 69.9339 55.8789 69.7809 56.0874C69.6279 56.2959 69.5639 56.5566 69.603 56.8122L69.611 56.9003C69.6779 57.3423 69.8018 57.7712 69.9756 58.1625C70.1494 58.5538 70.3697 58.8998 70.6238 59.1807C70.8779 59.4616 71.161 59.6719 71.4567 59.7994C71.7523 59.927 72.0549 59.9694 72.347 59.9242L72.507 59.9003C73.0957 59.8102 73.6067 59.3704 73.9277 58.6774C74.2486 57.9844 74.3534 57.095 74.219 56.2043L74.203 56.1162C74.1636 55.8606 74.0243 55.6312 73.8158 55.4782C73.6073 55.3252 73.3466 55.2612 73.091 55.3003Z" stroke="#252338" stroke-width="2"/>
<path d="M64.5081 61.5887C59.2041 61.0207 59.3561 66.3007 63.4681 67.1247C63.7881 67.1887 64.0761 67.1194 64.3321 66.9167L67.0601 64.8207C67.2076 64.7066 67.3186 64.5521 67.3797 64.3759C67.4408 64.1998 67.4493 64.0096 67.4041 63.8287C67.0681 62.506 66.1028 61.7594 64.5081 61.5887Z" stroke="#252338" stroke-width="2"/>
<path d="M52.6115 83.5803C52.6855 83.7183 52.8086 83.8232 52.9557 83.8737C53.1028 83.9242 53.2629 83.9166 53.4034 83.8523C56.4754 82.4523 60.6674 80.0843 61.4034 76.4763C61.4208 76.388 61.4205 76.2971 61.4025 76.209C61.3845 76.1208 61.3492 76.0371 61.2986 75.9627C61.248 75.8883 61.1831 75.8246 61.1077 75.7755C61.0323 75.7263 60.948 75.6926 60.8595 75.6763C58.9075 75.3083 56.7875 74.4043 54.9715 74.7723C50.7155 75.6523 51.0355 80.5963 52.6115 83.5803Z" stroke="#252338" stroke-width="2"/>
<path d="M83.948 116.989C90.836 113.037 97.588 107.597 106.044 111.933C106.486 112.156 106.999 112.198 107.47 112.048C107.942 111.899 108.335 111.57 108.564 111.133C110.732 107.005 105.14 104.373 102.068 104.349C94.596 104.277 84.772 108.189 83.26 116.501C83.2435 116.588 83.2524 116.678 83.2857 116.76C83.3189 116.843 83.3751 116.914 83.4475 116.965C83.52 117.017 83.6056 117.046 83.6944 117.05C83.7831 117.054 83.8711 117.033 83.948 116.989Z" stroke="#673B32" stroke-width="2"/>
<path d="M85.9889 140.678C85.9882 140.57 85.9664 140.464 85.9247 140.366C85.883 140.267 85.8222 140.177 85.7459 140.102C85.6696 140.027 85.5792 139.967 85.48 139.927C85.3807 139.887 85.2744 139.866 85.1673 139.867L82.3513 139.887C82.2442 139.888 82.1382 139.909 82.0395 139.951C81.9408 139.993 81.8512 140.054 81.776 140.13C81.7008 140.206 81.6413 140.297 81.6009 140.396C81.5606 140.495 81.5403 140.601 81.541 140.709L81.5693 144.756C81.57 144.864 81.5919 144.97 81.6336 145.068C81.6753 145.167 81.736 145.257 81.8123 145.332C81.8886 145.407 81.979 145.466 82.0782 145.507C82.1775 145.547 82.2838 145.567 82.3909 145.567L85.2069 145.547C85.314 145.546 85.42 145.524 85.5187 145.483C85.6174 145.441 85.707 145.38 85.7822 145.304C85.8574 145.228 85.9169 145.137 85.9572 145.038C85.9976 144.939 86.0179 144.833 86.0172 144.725L85.9889 140.678Z" stroke="#D5886B" stroke-width="2"/>
<path d="M84.0673 151.605C84.2386 151.701 84.4326 151.75 84.6291 151.745C84.8256 151.741 85.0174 151.684 85.1842 151.58C85.3511 151.476 85.4869 151.329 85.5775 151.155C85.6682 150.981 85.7102 150.785 85.6993 150.589L85.5473 147.933C85.5313 147.597 85.3819 147.343 85.0993 147.173C82.4753 145.613 80.3713 149.509 84.0673 151.605Z" stroke="#BF6548" stroke-width="2"/>
<path d="M104.46 133.357L95.5642 133.532C95.4108 133.536 95.2595 133.569 95.119 133.631C94.9784 133.692 94.8515 133.781 94.7452 133.891C94.639 134.002 94.5556 134.133 94.4998 134.276C94.444 134.419 94.417 134.571 94.4202 134.724V134.876C94.4566 136.737 95.0813 138.509 96.157 139.804C97.2327 141.099 98.6713 141.81 100.156 141.78H100.188C101.673 141.752 103.082 140.986 104.107 139.651C105.132 138.315 105.687 136.52 105.652 134.661V134.509C105.65 134.354 105.618 134.202 105.556 134.061C105.495 133.919 105.407 133.791 105.296 133.684C105.185 133.577 105.054 133.493 104.911 133.437C104.767 133.381 104.614 133.353 104.46 133.357Z" stroke="#261E2F" stroke-width="2"/>
<path d="M151.98 141.421C154.348 140.669 156.556 140.301 156.948 137.605C157.892 131.221 147.468 129.605 146.924 135.493C146.724 137.709 149.004 142.365 151.98 141.421Z" stroke="#261E2F" stroke-width="2"/>
<path d="M182.804 43.3887L182.324 46.2447C182.308 46.3514 182.247 46.4047 182.14 46.4047H181.9C181.783 46.4047 181.713 46.4634 181.692 46.5807C181.569 47.2847 181.396 47.9807 181.172 48.6687C181.113 48.8553 181.039 48.8607 180.948 48.6847C180.921 48.6314 180.897 48.5593 180.876 48.4687C180.828 48.218 180.724 48.1914 180.564 48.3887C180.169 48.8954 179.719 49.3434 179.212 49.7327C178.796 50.0527 178.679 49.9674 178.86 49.4767L179.1 48.8207C179.142 48.7103 179.144 48.589 179.107 48.4771C179.069 48.3652 178.994 48.2697 178.895 48.2067C178.795 48.1437 178.676 48.117 178.559 48.1312C178.442 48.1454 178.334 48.1996 178.252 48.2847L175.948 50.6207C175.7 50.8734 175.368 51.0295 175.012 51.0607C173.337 51.2047 171.7 51.554 170.1 52.1087C169.881 52.1834 169.756 52.3353 169.724 52.5647L169.5 54.1167C169.486 54.22 169.441 54.3168 169.371 54.394C169.301 54.4712 169.209 54.5252 169.108 54.5487C166.796 55.1247 165.028 57.0127 162.14 58.1567C161.9 58.2527 161.668 58.234 161.444 58.1007C159.7 57.0527 158.14 57.0767 157.364 59.1967C157.268 59.458 157.087 59.5487 156.82 59.4687C154.089 58.6367 151.319 58.306 148.508 58.4767C142.06 58.8687 136.98 64.2127 131.02 66.0287C124.58 67.9967 118.252 64.8447 110.788 61.9247C105.388 59.8047 101.508 59.3327 97.0279 62.8047C96.3079 63.3647 94.2519 63.6687 93.0599 63.5167C84.6599 62.4127 78.8759 67.3487 75.8839 74.7807C75.7933 75.0154 75.7746 75.2527 75.8279 75.4927C76.0679 76.5727 75.3959 77.1727 74.3479 77.3887C69.2546 78.4714 66.8466 81.5834 67.1239 86.7247C67.2199 88.4127 68.0999 90.0687 68.5639 91.7887C68.5973 91.9141 68.6012 92.0455 68.5752 92.1727C68.5493 92.2998 68.4942 92.4193 68.4144 92.5216C68.3346 92.6239 68.2322 92.7063 68.1151 92.7623C67.9981 92.8184 67.8696 92.8466 67.7399 92.8447C64.6679 92.8127 60.2759 92.4447 57.6759 93.3727C53.1479 94.9887 51.7799 102.645 51.1959 107.525C51.0439 108.789 51.5719 110.317 49.8199 110.613C49.7186 110.629 49.6652 110.69 49.6599 110.797C49.6599 110.855 49.6626 110.927 49.6679 111.013C49.6711 111.046 49.6635 111.08 49.6462 111.109C49.6289 111.139 49.6027 111.161 49.5716 111.175C49.5405 111.188 49.506 111.191 49.4729 111.184C49.4399 111.176 49.4101 111.158 49.3879 111.133C49.1852 110.914 49.0652 110.658 49.0279 110.365C49.0159 110.254 48.9735 110.149 48.9057 110.061C48.8379 109.974 48.7472 109.907 48.6439 109.869L46.9079 109.213C46.6572 109.122 46.4946 108.949 46.4199 108.693C46.0572 107.525 45.3319 106.557 44.2439 105.789C44.2119 104.007 44.8652 102.41 46.2039 100.997C46.2471 100.95 46.2802 100.895 46.3009 100.835C46.3217 100.775 46.3296 100.712 46.3243 100.648C46.3191 100.585 46.3007 100.524 46.2703 100.468C46.2399 100.412 46.1982 100.363 46.1479 100.325C45.6732 99.9674 45.1799 99.634 44.6679 99.3247C44.4599 99.1967 44.3132 99.018 44.2279 98.7887C42.5159 94.1967 46.8119 93.2607 50.1479 93.0447C54.8679 92.7327 49.7319 88.5967 48.3719 87.5967C44.1079 78.9407 49.4199 73.5807 58.0119 72.2767C58.2252 72.2447 58.2812 72.13 58.1799 71.9327C54.9906 65.81 56.4172 61.5754 62.4599 59.2287L65.2519 59.0207C65.5079 58.9993 65.6412 58.8607 65.6519 58.6047C65.8812 53.1114 68.7666 50.8527 74.3079 51.8287C74.6332 51.8874 74.8119 51.754 74.8439 51.4287C75.0839 49.3167 75.2039 47.0527 76.7479 45.5247C78.4759 43.8233 80.6519 43.274 83.2759 43.8767C83.4221 43.9096 83.5751 43.8888 83.7061 43.8181C83.8372 43.7474 83.9374 43.6318 83.9879 43.4927C85.6412 38.954 88.8599 37.4127 93.6439 38.8687C94.3799 39.0927 94.7346 38.818 94.7079 38.0447C94.6652 37.0367 95.2066 35.402 96.3319 33.1407C98.4279 31.498 100.673 30.594 103.068 30.4287C106.999 30.1567 110.033 31.8207 112.172 35.4207C112.343 35.7087 112.516 35.7087 112.692 35.4207C115.972 29.9487 122.204 29.8527 125.804 34.7407C125.959 34.954 126.121 34.9594 126.292 34.7567C131.628 28.5007 137.332 30.1327 142.644 35.0767C142.879 35.2954 143.087 35.2714 143.268 35.0047C147.452 28.8287 155.916 30.7247 158.844 37.0367C159.004 37.3834 159.185 37.3967 159.388 37.0767C162.396 32.3407 169.228 33.7247 170.756 38.7487C171.252 40.3647 170.644 41.8767 170.652 43.6527C170.652 43.994 170.801 44.0874 171.1 43.9327C174.884 42.0047 179.124 40.5487 182.804 43.3887ZM73.0919 55.3007L70.4199 55.7007C70.1643 55.7401 69.9348 55.8794 69.7818 56.0879C69.6288 56.2964 69.5648 56.557 69.6039 56.8127L69.6119 56.9007C69.6788 57.3427 69.8027 57.7716 69.9765 58.163C70.1503 58.5543 70.3706 58.9003 70.6247 59.1812C70.8788 59.4621 71.1619 59.6723 71.4576 59.7999C71.7532 59.9275 72.0558 59.9699 72.3479 59.9247L72.5079 59.9007C73.0966 59.8106 73.6076 59.3708 73.9285 58.6779C74.2495 57.9849 74.3543 57.0954 74.2199 56.2047L74.2039 56.1167C74.1645 55.8611 74.0252 55.6316 73.8167 55.4786C73.6082 55.3256 73.3475 55.2616 73.0919 55.3007ZM64.5079 61.5887C59.2039 61.0207 59.3559 66.3007 63.4679 67.1247C63.7879 67.1887 64.0759 67.1193 64.3319 66.9167L67.0599 64.8207C67.2074 64.7066 67.3184 64.5521 67.3795 64.3759C67.4406 64.1997 67.4491 64.0096 67.4039 63.8287C67.0679 62.506 66.1026 61.7594 64.5079 61.5887ZM52.6119 83.5807C52.6859 83.7186 52.809 83.8235 52.9561 83.8741C53.1032 83.9246 53.2633 83.917 53.4039 83.8527C56.4759 82.4527 60.6679 80.0847 61.4039 76.4767C61.4213 76.3884 61.4209 76.2975 61.4029 76.2094C61.3849 76.1212 61.3496 76.0375 61.299 75.9631C61.2484 75.8886 61.1835 75.825 61.1081 75.7759C61.0328 75.7267 60.9484 75.693 60.8599 75.6767C58.9079 75.3087 56.7879 74.4047 54.9719 74.7727C50.7159 75.6527 51.0359 80.5967 52.6119 83.5807Z" fill="#141D33"/>
<path d="M182.804 43.389C184.644 45.3837 184.951 47.7944 183.724 50.621C183.591 50.9304 183.687 51.045 184.012 50.965C186.292 50.421 188.804 49.7171 191.012 50.2531C196.588 51.6131 198.34 56.8931 195.9 61.8531C195.783 62.0877 195.841 62.2637 196.076 62.381C201.884 65.2557 203.663 69.8237 201.412 76.085C201.316 76.341 201.401 76.5037 201.668 76.573L204.124 77.197C210.212 80.517 210.62 85.805 207.78 91.829C207.657 92.0797 207.703 92.2957 207.916 92.477C211.559 95.629 211.62 98.8371 208.1 102.101C207.897 102.293 207.881 102.501 208.052 102.725L210.052 105.357C210.236 105.598 210.351 105.885 210.388 106.189C210.788 109.677 209.268 111.741 205.828 112.381C205.497 112.44 205.425 112.61 205.612 112.893C207.585 115.874 207.316 118.621 204.804 121.133C204.527 121.41 204.084 121.506 203.476 121.421C203.172 121.384 202.993 121.514 202.94 121.813C202.545 123.84 201.039 125.288 198.42 126.157L194.556 124.437C194.505 124.413 194.449 124.404 194.393 124.41C194.337 124.416 194.283 124.436 194.238 124.47C194.193 124.504 194.158 124.549 194.137 124.601C194.115 124.653 194.108 124.709 194.116 124.765C195.044 131.349 188.276 128.941 185.46 131.397C184.863 131.914 184.268 132.493 183.676 133.133C183.54 133.282 183.363 133.386 183.168 133.433C182.972 133.48 182.767 133.468 182.578 133.397C182.39 133.327 182.227 133.201 182.11 133.037C181.994 132.873 181.929 132.678 181.924 132.477L181.628 122.261C181.618 121.941 181.689 121.621 181.836 121.333C183.484 118.077 180.676 118.197 179.524 116.317C177.372 112.797 178.972 111.453 180.38 108.285C180.403 108.236 180.414 108.183 180.412 108.129C180.409 108.075 180.394 108.022 180.366 107.975C180.339 107.928 180.3 107.888 180.254 107.859C180.208 107.829 180.155 107.811 180.1 107.805C176.041 107.394 173.775 105.25 173.3 101.373C173.124 99.909 173.996 98.277 174.412 96.821C174.487 96.5597 174.436 96.3224 174.26 96.1091L172.348 93.797C172.185 93.6083 172.073 93.3799 172.02 93.133L171.364 90.237C171.295 89.9437 171.137 89.8851 170.892 90.0611C169.233 91.2237 167.231 91.7624 164.884 91.677L162.924 91.2531C162.647 91.1944 162.417 91.0557 162.236 90.837L160.188 88.4531C159.985 88.2184 159.759 88.1917 159.508 88.373C158.06 89.421 156.492 90.805 154.972 91.429C151.028 93.061 145.02 92.805 142.452 88.837C141.588 87.501 140.212 81.0611 138.388 81.7571C138.236 81.8145 138.1 81.9066 137.991 82.0261C137.881 82.1456 137.801 82.289 137.756 82.445L136.412 87.181C135.345 90.109 133.444 91.7144 130.708 91.997C125.804 92.501 125.06 87.533 124.292 84.021C124.251 83.8244 124.147 83.6465 123.996 83.5146C123.844 83.3826 123.654 83.3039 123.454 83.2903C123.253 83.2767 123.054 83.329 122.886 83.4393C122.718 83.5496 122.591 83.7117 122.524 83.9011C121.196 87.5091 121.556 91.293 116.5 91.989C107.116 93.277 109.676 86.621 106.684 81.597C106.649 81.5369 106.599 81.4872 106.538 81.4531C106.477 81.4189 106.408 81.4013 106.338 81.4021C106.267 81.4029 106.198 81.4221 106.137 81.4576C106.076 81.4932 106.024 81.5441 105.988 81.6051C105.209 82.9491 104.708 84.405 104.484 85.973C103.396 93.765 95.1642 94.037 89.7802 90.877C89.5658 90.7518 89.3286 90.6704 89.0823 90.6376C88.8361 90.6048 88.5856 90.6212 88.3454 90.6859C88.1051 90.7506 87.8799 90.8624 87.6826 91.0146C87.4854 91.1669 87.32 91.3566 87.1961 91.573C85.6708 94.2397 83.3641 95.2824 80.2761 94.701C80.2209 94.691 80.1639 94.6964 80.1115 94.7167C80.0591 94.7371 80.0134 94.7715 79.9794 94.8162C79.9454 94.861 79.9245 94.9143 79.919 94.9702C79.9135 95.0262 79.9235 95.0825 79.9481 95.133C81.3721 97.9704 81.6148 100.648 80.6761 103.165C78.7935 105.89 76.2495 107.005 73.0441 106.509C72.7135 106.456 72.6121 106.584 72.7401 106.893C74.1881 110.365 75.5081 114.245 72.1081 117.125C71.9055 117.301 71.8148 117.52 71.8361 117.781C72.1241 121.338 72.1481 124.901 71.9081 128.469C71.9069 128.527 71.8848 128.582 71.8459 128.625C71.807 128.668 71.7539 128.695 71.6965 128.702C71.639 128.709 71.581 128.695 71.5332 128.662C71.4853 128.63 71.4509 128.581 71.4361 128.525C68.8121 120.325 58.4761 119.173 54.5081 126.885C54.0388 127.802 53.5561 128.565 53.0601 129.173C48.4281 127.037 48.8521 124.061 51.2521 120.669C51.4121 120.45 51.3588 120.325 51.0921 120.293C47.7481 119.856 46.2041 117.997 46.4601 114.717C46.4868 114.354 46.6175 114.032 46.8521 113.749L48.3401 111.941C48.5214 111.717 48.4761 111.56 48.2041 111.469C45.4788 110.53 44.1588 108.637 44.2441 105.789C45.3321 106.557 46.0575 107.525 46.4201 108.693C46.4948 108.949 46.6575 109.122 46.9081 109.213L48.6441 109.869C48.7474 109.907 48.8381 109.974 48.9059 110.062C48.9738 110.149 49.0161 110.254 49.0282 110.365C49.0655 110.658 49.1854 110.914 49.3881 111.133C49.4103 111.159 49.4402 111.176 49.4732 111.184C49.5062 111.192 49.5407 111.188 49.5719 111.175C49.603 111.162 49.6291 111.139 49.6464 111.11C49.6637 111.081 49.6713 111.047 49.6681 111.013C49.6628 110.928 49.6601 110.856 49.6601 110.797C49.6655 110.69 49.7188 110.629 49.8201 110.613C51.5721 110.317 51.0441 108.789 51.1961 107.525C51.7801 102.645 53.1482 94.989 57.6762 93.373C60.2762 92.445 64.6681 92.813 67.7401 92.845C67.8699 92.8469 67.9983 92.8187 68.1154 92.7627C68.2324 92.7066 68.3348 92.6242 68.4146 92.5219C68.4945 92.4196 68.5495 92.3002 68.5755 92.173C68.6014 92.0459 68.5975 91.9144 68.5641 91.789C68.1001 90.069 67.2201 88.413 67.1241 86.725C66.8468 81.5837 69.2548 78.4717 74.3481 77.389C75.3961 77.173 76.0682 76.573 75.8281 75.493C75.7748 75.253 75.7935 75.0157 75.8842 74.781C78.8762 67.349 84.6601 62.413 93.0601 63.517C94.2521 63.669 96.3082 63.3651 97.0282 62.8051C101.508 59.3331 105.388 59.805 110.788 61.925C118.252 64.845 124.58 67.997 131.02 66.029C136.98 64.213 142.06 58.869 148.508 58.477C151.319 58.3064 154.089 58.637 156.82 59.469C157.087 59.549 157.268 59.4584 157.364 59.197C158.14 57.077 159.7 57.0531 161.444 58.1011C161.668 58.2344 161.9 58.2531 162.14 58.1571C165.028 57.0131 166.796 55.125 169.108 54.549C169.21 54.5255 169.302 54.4715 169.372 54.3943C169.442 54.3171 169.487 54.2204 169.5 54.117L169.724 52.565C169.756 52.3357 169.881 52.1837 170.1 52.1091C171.7 51.5544 173.337 51.2051 175.012 51.0611C175.368 51.0298 175.7 50.8737 175.948 50.621L178.252 48.285C178.334 48.2 178.442 48.1458 178.56 48.1316C178.677 48.1174 178.795 48.144 178.895 48.2071C178.995 48.2701 179.069 48.3656 179.107 48.4775C179.144 48.5893 179.142 48.7107 179.1 48.821L178.86 49.477C178.679 49.9677 178.796 50.053 179.212 49.733C179.719 49.3437 180.169 48.8957 180.564 48.389C180.724 48.1917 180.828 48.2184 180.876 48.469C180.897 48.5597 180.921 48.6317 180.948 48.685C181.039 48.861 181.113 48.8557 181.172 48.669C181.396 47.981 181.569 47.285 181.692 46.581C181.713 46.4637 181.783 46.4051 181.9 46.4051H182.14C182.247 46.4051 182.308 46.3517 182.324 46.245L182.804 43.389Z" fill="#040F26"/>
<path d="M73.091 55.3003C73.3466 55.2612 73.6073 55.3252 73.8158 55.4782C74.0243 55.6312 74.1636 55.8606 74.203 56.1162L74.219 56.2043C74.3534 57.095 74.2486 57.9844 73.9277 58.6774C73.6067 59.3704 73.0957 59.8102 72.507 59.9003L72.347 59.9242C72.0549 59.9694 71.7523 59.927 71.4567 59.7994C71.161 59.6719 70.8779 59.4616 70.6238 59.1807C70.3697 58.8998 70.1494 58.5538 69.9756 58.1625C69.8018 57.7712 69.6779 57.3423 69.611 56.9003L69.603 56.8122C69.5639 56.5566 69.6279 56.2959 69.7809 56.0874C69.9339 55.8789 70.1634 55.7397 70.419 55.7003L73.091 55.3003Z" fill="#35293C"/>
<path d="M64.5071 61.5887C66.1018 61.7594 67.0671 62.506 67.4031 63.8287C67.4483 64.0096 67.4398 64.1998 67.3787 64.3759C67.3176 64.5521 67.2066 64.7066 67.0591 64.8207L64.3311 66.9167C64.0751 67.1194 63.7871 67.1887 63.4671 67.1247C59.3551 66.3007 59.2031 61.0207 64.5071 61.5887Z" fill="#35293C"/>
<path d="M52.6115 83.5803C51.0355 80.5963 50.7155 75.6523 54.9715 74.7723C56.7875 74.4043 58.9075 75.3083 60.8595 75.6763C60.948 75.6926 61.0323 75.7263 61.1077 75.7755C61.1831 75.8246 61.248 75.8883 61.2986 75.9627C61.3492 76.0371 61.3845 76.1208 61.4025 76.209C61.4205 76.2971 61.4208 76.388 61.4034 76.4763C60.6674 80.0843 56.4754 82.4523 53.4034 83.8523C53.2629 83.9166 53.1028 83.9242 52.9557 83.8737C52.8086 83.8232 52.6855 83.7183 52.6115 83.5803Z" fill="#35293C"/>
<path d="M203.26 70.6367C206.06 74.2367 212.068 87.7727 212.068 87.7727C217.924 106.677 219.868 124.245 216.324 143.405C210.74 173.607 194.881 197.17 168.748 214.093C163.836 201.173 158.092 190.981 143.972 188.069L135.852 186.357C135.517 186.285 135.215 186.105 134.992 185.845C134.769 185.585 134.638 185.259 134.62 184.917L134.348 179.277C146.66 177.629 158.252 174.037 168.068 166.085C174.233 160.911 178.444 154.405 180.7 146.565C180.78 146.293 180.956 146.199 181.228 146.285C190.086 148.983 196.281 146.346 199.812 138.373C201.625 134.277 201.161 130.205 198.42 126.157C201.038 125.287 202.545 123.839 202.94 121.813C202.993 121.514 203.172 121.383 203.476 121.421C204.084 121.506 204.526 121.41 204.804 121.133C207.316 118.621 207.585 115.874 205.612 112.893C205.425 112.61 205.497 112.439 205.828 112.381C209.268 111.741 210.788 109.677 210.388 106.189C210.351 105.885 210.235 105.598 210.052 105.357L208.052 102.725C207.881 102.501 207.897 102.293 208.1 102.101C211.62 98.8367 211.558 95.6287 207.916 92.4767C207.702 92.2954 207.657 92.0794 207.78 91.8287C210.62 85.8047 211.26 79.8367 202.06 76.2367L203.26 70.6367Z" fill="#EBECE6"/>
<path d="M136.411 87.1805C137.307 86.8338 137.984 87.0471 138.443 87.8205C136.115 91.1005 133.203 94.5485 128.795 94.0685C128.789 94.0694 128.783 94.072 128.779 94.0761C128.774 94.0801 128.771 94.0854 128.769 94.0913C128.767 94.0972 128.767 94.1035 128.769 94.1094C128.771 94.1153 128.774 94.1205 128.779 94.1245L129.051 94.2685C129.286 94.3911 129.395 94.5858 129.379 94.8525C129.243 96.8125 129.043 98.2365 129.299 100.405C129.563 102.621 128.659 104.636 128.611 106.596C128.536 109.706 128.544 112.815 128.635 115.924C128.731 119.116 128.195 122.581 128.299 125.957C128.411 129.957 127.811 132.812 127.003 136.436C126.95 136.682 126.982 136.916 127.099 137.14C127.475 137.844 125.915 138.588 125.443 138.996C122.075 137.156 123.659 144.332 124.339 145.524C122.686 147.199 122.6 148.204 124.083 148.54L124.459 151.844C124.496 152.148 124.36 152.29 124.051 152.268C122.6 152.167 121.587 152.543 121.011 153.396L112.435 152.34C112.174 152.308 111.92 152.343 111.675 152.444L111.051 152.701C110.304 152.407 109.344 152.388 108.171 152.644C108.31 150.751 107.942 149.178 107.067 147.924C106.179 146.66 104.771 146.405 103.395 145.701C103.166 145.583 103.027 145.399 102.979 145.148C102.883 144.679 102.912 144.119 103.067 143.468C105.872 143.1 107.694 141.383 108.531 138.316C109.288 135.532 109.254 133.33 108.427 131.709C107.435 126.213 103.563 122.821 97.8671 123.349C93.3711 123.765 89.6724 126.26 86.7711 130.836C86.4671 130.058 86.4671 128.933 86.7711 127.461C87.0431 126.133 86.6164 125.354 85.4911 125.124C85.2388 125.072 85.0052 124.959 84.8111 124.797C81.0671 121.789 81.0031 119.7 79.7231 115.38C79.4938 114.607 79.8377 113.77 80.7551 112.868C80.9471 112.687 81.0191 112.466 80.9711 112.205L80.5951 109.932C80.5471 109.66 80.6324 109.437 80.8511 109.261C81.5071 108.733 81.6271 108.151 81.2111 107.516C81.1351 107.397 81.0832 107.264 81.0585 107.126C81.0338 106.987 81.0367 106.845 81.0671 106.709C81.2004 106.122 81.0777 105.626 80.6991 105.22C80.5391 105.044 80.4991 104.847 80.5791 104.628C80.7124 104.239 80.7444 103.751 80.6751 103.164C81.6138 100.647 81.3711 97.9698 79.9471 95.1325C79.9225 95.082 79.9124 95.0256 79.9179 94.9697C79.9234 94.9138 79.9444 94.8604 79.9784 94.8157C80.0124 94.7709 80.0581 94.7365 80.1105 94.7162C80.1628 94.6958 80.2198 94.6904 80.2751 94.7005C83.3631 95.2818 85.6697 94.2391 87.1951 91.5725C87.319 91.3561 87.4843 91.1663 87.6816 91.0141C87.8788 90.8618 88.1041 90.7501 88.3443 90.6854C88.5846 90.6207 88.835 90.6042 89.0813 90.637C89.3276 90.6698 89.5647 90.7512 89.7791 90.8765C95.1631 94.0365 103.395 93.7645 104.483 85.9725C104.707 84.4045 105.208 82.9485 105.987 81.6045C106.023 81.5435 106.075 81.4927 106.136 81.4571C106.197 81.4215 106.266 81.4024 106.337 81.4016C106.407 81.4008 106.476 81.4183 106.537 81.4525C106.597 81.4867 106.648 81.5363 106.683 81.5965C109.675 86.6205 107.115 93.2765 116.499 91.9885C121.555 91.2925 121.195 87.5085 122.523 83.9005C122.59 83.7112 122.717 83.549 122.885 83.4387C123.053 83.3285 123.252 83.2761 123.453 83.2897C123.653 83.3033 123.843 83.3821 123.995 83.514C124.146 83.646 124.25 83.8238 124.291 84.0205C125.059 87.5325 125.803 92.5005 130.707 91.9965C133.443 91.7138 135.344 90.1085 136.411 87.1805ZM83.9471 116.988C90.8351 113.036 97.5871 107.596 106.043 111.932C106.485 112.156 106.998 112.198 107.469 112.048C107.941 111.898 108.334 111.57 108.563 111.132C110.731 107.004 105.139 104.372 102.067 104.349C94.5951 104.277 84.7711 108.189 83.2591 116.501C83.2426 116.588 83.2515 116.678 83.2847 116.76C83.318 116.843 83.3741 116.914 83.4466 116.965C83.519 117.017 83.6047 117.046 83.6934 117.05C83.7821 117.054 83.8702 117.033 83.9471 116.988Z" fill="#B86243"/>
<path d="M164.884 91.6771C167.716 93.4211 170.086 95.4184 171.996 97.6691C172.177 97.8824 172.228 98.1225 172.148 98.3891C171.204 101.685 174.372 105.125 171.676 107.701C171.484 107.882 171.433 108.096 171.524 108.341C171.95 109.482 172.577 110.522 173.404 111.461C173.596 111.674 173.737 111.917 173.828 112.189C174.116 113.021 174.74 114.088 175.7 115.389C176.628 116.637 177.286 118.685 177.676 121.533C177.713 121.8 177.868 121.952 178.14 121.989L178.98 122.101C179.433 122.165 179.665 122.429 179.676 122.893L179.78 130.957C179.785 131.272 179.676 131.541 179.452 131.765C178.081 133.146 177.068 134.752 176.412 136.581C176.393 136.634 176.39 136.691 176.402 136.746C176.415 136.802 176.443 136.852 176.484 136.893L176.732 137.149C176.838 137.25 176.892 137.376 176.892 137.525C176.996 144.205 175.764 148.685 174.324 154.173C173.404 157.701 170.22 161.021 167.9 163.749C167.818 163.847 167.758 163.96 167.727 164.082C167.695 164.204 167.691 164.331 167.716 164.453L168.068 166.085C158.252 174.037 146.66 177.629 134.348 179.277L132.852 179.509C132.937 179.162 133.081 178.888 133.284 178.685C133.47 178.498 133.529 178.277 133.46 178.021C131.892 172.421 138.02 171.965 141.18 169.573C141.289 169.491 141.378 169.385 141.439 169.263C141.5 169.14 141.532 169.006 141.532 168.869C141.532 167.781 141.966 166.952 142.836 166.381C142.948 166.312 142.956 166.232 142.86 166.141C142.796 166.077 142.729 166.008 142.66 165.933C142.601 165.864 142.537 165.861 142.468 165.925L142.068 166.333C142.004 166.397 141.942 166.394 141.884 166.325C141.836 166.272 141.828 166.2 141.86 166.109C141.844 166.034 141.828 165.957 141.812 165.877C145.497 162.512 147.148 158.384 146.764 153.493C146.737 153.216 146.604 153.005 146.364 152.861C145.569 152.386 144.833 152.338 144.156 152.717C133.452 155.218 123.084 155.405 113.052 153.277C112.54 153.17 112.126 153.216 111.812 153.413L111.052 152.701L111.676 152.445C111.921 152.344 112.174 152.309 112.436 152.341L121.012 153.397C127.95 154.128 134.793 153.728 141.54 152.197C141.79 152.138 141.961 151.989 142.052 151.749C142.484 150.634 143.412 149.688 144.836 148.909C147.534 147.432 148.74 145.701 148.452 143.717L153.044 144.357C157.044 143.901 160.34 144.309 162.932 140.141C164.116 138.85 164.884 137.178 165.236 135.125C165.289 134.826 165.452 134.616 165.724 134.493C166.652 134.066 167.529 133.544 168.356 132.925C168.985 132.45 168.905 132.237 168.116 132.285L165.9 132.429C165.72 132.44 165.541 132.393 165.389 132.295C165.238 132.197 165.121 132.053 165.057 131.884C164.993 131.716 164.984 131.531 165.032 131.357C165.08 131.183 165.182 131.029 165.324 130.917C166.518 130 167.841 129.322 169.292 128.885C169.332 128.872 169.368 128.848 169.395 128.816C169.422 128.784 169.44 128.745 169.446 128.703C169.451 128.661 169.445 128.618 169.428 128.58C169.411 128.541 169.383 128.508 169.348 128.485C169.113 128.346 168.833 128.4 168.508 128.645C171.132 123.664 171.22 120.328 168.772 118.637C168.604 111.501 160.06 106.565 153.804 105.293C154.006 104.674 153.646 104.245 152.724 104.005C152.366 103.909 152.342 103.757 152.652 103.549C156.172 101.133 154.78 97.8131 152.044 95.0771C151.958 94.9913 151.855 94.9237 151.743 94.8783C151.63 94.833 151.509 94.8108 151.388 94.8131C143.164 95.1171 142.58 94.5571 138.444 87.8211C137.985 87.0478 137.308 86.8344 136.412 87.1811L137.756 82.4451C137.8 82.2891 137.88 82.1456 137.99 82.0262C138.1 81.9067 138.236 81.8146 138.388 81.7571C140.212 81.0611 141.588 87.5011 142.452 88.8371C145.02 92.8051 151.028 93.0611 154.972 91.4291C156.492 90.8051 158.06 89.4211 159.508 88.3731C159.758 88.1918 159.985 88.2185 160.188 88.4531L162.236 90.8371C162.417 91.0558 162.646 91.1945 162.924 91.2531L164.884 91.6771Z" fill="#8F4631"/>
<path d="M48.3713 87.5969C49.7313 88.5969 54.8673 92.7329 50.1473 93.0449C46.8113 93.2609 42.5153 94.1969 44.2273 98.7889C44.3127 99.0182 44.4593 99.1968 44.6673 99.3248C45.1793 99.6342 45.6726 99.9675 46.1473 100.325C46.1976 100.364 46.2393 100.412 46.2697 100.468C46.3001 100.524 46.3185 100.585 46.3238 100.648C46.3291 100.712 46.3211 100.775 46.3003 100.835C46.2796 100.895 46.2465 100.95 46.2033 100.997C44.8647 102.41 44.2113 104.008 44.2433 105.789C44.158 108.637 45.478 110.53 48.2033 111.469C48.4753 111.56 48.5206 111.717 48.3393 111.941L46.8513 113.749C46.6167 114.032 46.486 114.354 46.4593 114.717C46.2033 117.997 47.7473 119.856 51.0913 120.293C51.358 120.325 51.4113 120.45 51.2513 120.669C48.8513 124.061 48.4273 127.037 53.0593 129.173C51.054 136.112 52.966 141.557 58.7953 145.509C61.494 147.333 64.4993 147.904 67.8113 147.221L72.1633 146.445C72.4673 146.392 72.6647 146.512 72.7553 146.805C75.118 154.533 79.4007 161.053 85.6033 166.365C95.2513 174.237 107.795 177.997 120.083 179.381L119.899 183.189C119.83 184.853 119.163 185.949 117.899 186.477L110.003 188.197C109.71 188.528 109.593 188.557 109.651 188.285L103.891 190.109C93.8593 194.261 88.6193 204.453 85.0993 213.853C84.4353 213.093 83.2434 213.173 82.2834 212.541C45.6513 188.461 31.1153 146.117 40.2593 103.877C41.4673 98.2688 41.4993 94.2529 45.2593 89.4529C45.4247 89.2395 45.6247 89.0715 45.8593 88.9489L48.3713 87.5969Z" fill="#EBECE6"/>
<path d="M138.444 87.8203C142.58 94.5563 143.164 95.1163 151.388 94.8123C151.509 94.81 151.63 94.8322 151.743 94.8775C151.855 94.9229 151.958 94.9905 152.044 95.0763C154.78 97.8123 156.172 101.132 152.652 103.548C152.342 103.756 152.366 103.908 152.724 104.004C153.646 104.244 154.006 104.674 153.804 105.292C150.678 104.647 148.036 104.7 145.876 105.452C143.388 106.324 141.756 108.788 143.668 111.1C143.817 111.287 144.014 111.391 144.26 111.412C145.102 111.482 145.689 111.468 146.02 111.372C154.188 109.004 161.708 113.292 168.772 118.636C171.22 120.327 171.132 123.663 168.508 128.644L164.924 129.66C164.646 129.74 164.414 129.668 164.228 129.444C156.524 120.036 143.076 122.54 143.524 136.052C143.038 139.962 144.681 142.516 148.452 143.716C148.74 145.7 147.534 147.431 144.836 148.908C143.412 149.687 142.484 150.634 142.052 151.748C141.961 151.988 141.79 152.138 141.54 152.196C134.793 153.727 127.95 154.127 121.012 153.396C121.588 152.543 122.601 152.167 124.052 152.268C124.361 152.29 124.497 152.148 124.46 151.844L124.084 148.54C130.676 149.484 131.86 142.068 126.1 139.42C126.052 139.527 125.833 139.386 125.444 138.996C125.916 138.588 127.476 137.844 127.1 137.14C126.982 136.916 126.95 136.682 127.004 136.436C127.812 132.812 128.412 129.956 128.3 125.956C128.196 122.58 128.732 119.116 128.636 115.924C128.545 112.815 128.537 109.706 128.612 106.596C128.66 104.636 129.564 102.62 129.3 100.404C129.044 98.2363 129.244 96.8123 129.38 94.8523C129.396 94.5857 129.286 94.391 129.052 94.2683L128.78 94.1243C128.775 94.1203 128.772 94.1151 128.77 94.1092C128.768 94.1034 128.768 94.0971 128.77 94.0912C128.771 94.0853 128.775 94.08 128.779 94.0759C128.784 94.0719 128.79 94.0692 128.796 94.0683C133.204 94.5483 136.116 91.1003 138.444 87.8203Z" fill="#AD5138"/>
<path d="M198.42 126.157C201.161 130.205 201.625 134.277 199.812 138.373C196.281 146.346 190.086 148.983 181.228 146.285C180.956 146.199 180.78 146.293 180.7 146.565C178.444 154.405 174.233 160.911 168.068 166.085L167.716 164.453C167.691 164.331 167.695 164.204 167.727 164.082C167.758 163.96 167.818 163.846 167.9 163.749C170.22 161.021 173.404 157.701 174.324 154.173C175.764 148.685 176.996 144.205 176.892 137.525C176.892 137.375 176.838 137.25 176.732 137.149L176.484 136.893C176.443 136.852 176.415 136.801 176.402 136.746C176.39 136.691 176.393 136.633 176.412 136.581C177.068 134.751 178.081 133.146 179.452 131.765C179.676 131.541 179.785 131.271 179.78 130.957L179.676 122.893C179.665 122.429 179.433 122.165 178.98 122.101L178.14 121.989C177.868 121.951 177.713 121.799 177.676 121.533C177.286 118.685 176.628 116.637 175.7 115.389C174.74 114.087 174.116 113.021 173.828 112.189C173.737 111.917 173.596 111.674 173.404 111.461C172.577 110.522 171.95 109.482 171.524 108.341C171.433 108.095 171.484 107.882 171.676 107.701C174.372 105.125 171.204 101.685 172.148 98.3887C172.228 98.1221 172.177 97.882 171.996 97.6687C170.086 95.418 167.716 93.4207 164.884 91.6767C167.23 91.762 169.233 91.2234 170.892 90.0607C171.137 89.8847 171.294 89.9434 171.364 90.2367L172.02 93.1327C172.072 93.3796 172.185 93.608 172.348 93.7967L174.26 96.1087C174.436 96.3221 174.486 96.5594 174.412 96.8207C173.996 98.2767 173.124 99.9087 173.3 101.373C173.774 105.25 176.041 107.394 180.1 107.805C180.155 107.81 180.207 107.829 180.254 107.858C180.3 107.888 180.338 107.928 180.366 107.975C180.393 108.022 180.409 108.075 180.411 108.129C180.414 108.183 180.403 108.236 180.38 108.285C178.972 111.453 177.372 112.797 179.524 116.317C180.676 118.197 183.484 118.077 181.836 121.333C181.689 121.621 181.617 121.94 181.628 122.261L181.924 132.477C181.929 132.678 181.993 132.873 182.11 133.037C182.227 133.201 182.39 133.326 182.578 133.397C182.766 133.467 182.972 133.48 183.167 133.433C183.363 133.386 183.54 133.281 183.676 133.133C184.268 132.493 184.862 131.914 185.46 131.397C188.276 128.941 195.044 131.349 194.116 124.765C194.108 124.709 194.115 124.652 194.136 124.6C194.158 124.548 194.193 124.503 194.238 124.47C194.283 124.436 194.336 124.415 194.392 124.409C194.448 124.404 194.505 124.413 194.556 124.437L198.42 126.157Z" fill="#792F2C"/>
<path d="M80.676 103.165C80.7453 103.752 80.7133 104.24 80.58 104.629C80.5 104.848 80.5399 105.045 80.6999 105.221C81.0786 105.626 81.2013 106.122 81.068 106.709C81.0376 106.846 81.0347 106.987 81.0594 107.126C81.0841 107.265 81.1359 107.397 81.212 107.517C81.628 108.152 81.5079 108.733 80.8519 109.261C80.6333 109.437 80.5479 109.661 80.5959 109.933L80.972 112.205C81.02 112.466 80.948 112.688 80.756 112.869C79.8386 113.77 79.4946 114.608 79.724 115.381C81.004 119.701 81.068 121.789 84.812 124.797C85.0061 124.96 85.2397 125.072 85.4919 125.125C86.6173 125.354 87.044 126.133 86.772 127.461C86.468 128.933 86.468 130.058 86.772 130.837C85.812 130.197 85.0546 129.821 84.4999 129.709C84.4365 129.699 84.3715 129.708 84.3133 129.735C84.2551 129.762 84.2065 129.806 84.1737 129.861C84.1409 129.917 84.1255 129.98 84.1294 130.045C84.1334 130.109 84.1566 130.17 84.1959 130.221C85.8866 132.285 87.0813 134.96 87.78 138.245C87.9453 139.04 88.3746 139.349 89.068 139.173C90.836 142.357 98.372 144.269 102.284 143.709C102.631 143.714 102.892 143.634 103.068 143.469C102.913 144.12 102.884 144.68 102.98 145.149C103.028 145.4 103.167 145.584 103.396 145.701C104.772 146.405 106.18 146.661 107.068 147.925C107.943 149.178 108.311 150.752 108.172 152.645C108.241 159.29 110.708 164.218 115.572 167.429C122.7 171.805 135.284 171.365 141.86 166.109C141.828 166.2 141.836 166.272 141.884 166.325C141.943 166.394 142.004 166.397 142.068 166.333L142.468 165.925C142.537 165.861 142.601 165.864 142.66 165.933C142.729 166.008 142.796 166.077 142.86 166.141C142.956 166.232 142.948 166.312 142.836 166.381C141.967 166.952 141.532 167.781 141.532 168.869C141.532 169.005 141.5 169.14 141.439 169.262C141.378 169.385 141.289 169.491 141.18 169.573C138.02 171.965 131.892 172.421 133.46 178.021C133.529 178.277 133.471 178.498 133.284 178.685C133.081 178.888 132.937 179.162 132.852 179.509C128.612 180.021 124.356 179.978 120.084 179.381C107.796 177.997 95.2519 174.237 85.604 166.365C84.8733 164.536 83.5826 162.92 81.732 161.517C81.508 161.346 81.3746 161.12 81.332 160.837C81.1346 159.509 80.6546 158.301 79.8919 157.213C77.7053 154.093 76.1 150.976 75.076 147.861C74.9326 147.431 74.8439 146.982 74.812 146.525C74.412 140.989 72.3319 133.349 67.2999 129.997C65.0119 128.469 61.54 130.757 60.308 132.573C57.852 136.197 60.764 139.829 64.732 140.109C65.004 140.125 65.2413 140.04 65.4439 139.853C66.4946 138.866 67.236 137.674 67.668 136.277C67.7096 136.141 67.7001 135.994 67.6412 135.864C67.5822 135.735 67.478 135.631 67.3479 135.573C66.1799 135.056 64.9213 134.768 63.572 134.709C63.3753 134.698 63.189 134.617 63.0462 134.481C62.9035 134.345 62.8136 134.163 62.7924 133.967C62.7713 133.772 62.8204 133.575 62.9309 133.411C63.0414 133.248 63.2062 133.13 63.3959 133.077C71.9319 130.837 71.8839 139.029 72.6999 144.541C72.7479 144.845 72.6306 145.061 72.3479 145.189L67.812 147.221C64.5 147.904 61.4946 147.333 58.7959 145.509C52.9666 141.557 51.0546 136.112 53.06 129.173C53.556 128.565 54.0386 127.802 54.508 126.885C58.476 119.173 68.8119 120.325 71.4359 128.525C71.4507 128.581 71.4852 128.63 71.533 128.662C71.5808 128.695 71.6388 128.709 71.6963 128.702C71.7537 128.695 71.8068 128.668 71.8457 128.625C71.8846 128.582 71.9067 128.527 71.908 128.469C72.148 124.901 72.1239 121.338 71.8359 117.781C71.8146 117.52 71.9053 117.301 72.108 117.125C75.508 114.245 74.1879 110.365 72.7399 106.893C72.6119 106.584 72.7133 106.456 73.0439 106.509C76.2493 107.005 78.7933 105.89 80.676 103.165ZM85.9898 140.677C85.989 140.57 85.9672 140.464 85.9255 140.366C85.8838 140.267 85.8231 140.177 85.7468 140.102C85.6705 140.027 85.5801 139.967 85.4808 139.927C85.3815 139.887 85.2753 139.866 85.1681 139.867L82.3522 139.887C82.245 139.888 82.1391 139.909 82.0404 139.951C81.9417 139.993 81.8521 140.053 81.7768 140.13C81.7016 140.206 81.6421 140.296 81.6018 140.396C81.5615 140.495 81.5411 140.601 81.5419 140.708L81.5701 144.756C81.5709 144.863 81.5927 144.969 81.6344 145.068C81.6761 145.167 81.7368 145.256 81.8131 145.332C81.8894 145.407 81.9798 145.466 82.0791 145.507C82.1784 145.547 82.2846 145.567 82.3918 145.567L85.2077 145.547C85.3149 145.546 85.4209 145.524 85.5196 145.483C85.6183 145.441 85.7078 145.38 85.7831 145.304C85.8583 145.228 85.9178 145.137 85.9581 145.038C85.9984 144.939 86.0188 144.832 86.018 144.725L85.9898 140.677ZM84.068 151.605C84.2392 151.701 84.4333 151.75 84.6298 151.746C84.8263 151.741 85.018 151.684 85.1849 151.58C85.3518 151.476 85.4876 151.33 85.5782 151.155C85.6688 150.981 85.7109 150.785 85.6999 150.589L85.5479 147.933C85.5319 147.597 85.3826 147.344 85.0999 147.173C82.4759 145.613 80.372 149.509 84.068 151.605Z" fill="#AD5138"/>
<path d="M106.044 111.933C97.588 107.597 90.836 113.037 83.948 116.989C83.8711 117.033 83.7831 117.054 83.6944 117.05C83.6056 117.046 83.52 117.017 83.4475 116.965C83.3751 116.914 83.3189 116.843 83.2857 116.76C83.2524 116.678 83.2435 116.588 83.26 116.501C84.772 108.189 94.596 104.277 102.068 104.349C105.14 104.373 110.732 107.005 108.564 111.133C108.335 111.57 107.942 111.899 107.47 112.048C106.999 112.198 106.486 112.156 106.044 111.933Z" fill="#161321"/>
<path d="M153.804 105.292C160.06 106.564 168.604 111.5 168.772 118.636C161.708 113.292 154.188 109.004 146.02 111.372C145.689 111.468 145.102 111.482 144.26 111.412C144.014 111.391 143.817 111.287 143.668 111.1C141.756 108.788 143.388 106.324 145.876 105.452C148.036 104.7 150.678 104.647 153.804 105.292Z" fill="#161321"/>
<path d="M108.428 131.708C108.615 137.628 106.321 141.495 101.548 143.308C93.484 144.596 88.86 133.924 94.756 128.476C94.8807 128.36 95.0305 128.274 95.194 128.224C95.3575 128.175 95.5304 128.163 95.6995 128.191C95.8685 128.219 96.0292 128.285 96.1694 128.384C96.3095 128.484 96.4254 128.614 96.508 128.764L96.988 129.644C97.2173 130.066 97.404 130.05 97.548 129.596C98.78 125.684 93.524 127.644 92.22 128.588C88.4067 131.362 87.356 134.89 89.068 139.172C88.3747 139.348 87.9454 139.039 87.7801 138.244C87.0814 134.959 85.8867 132.284 84.196 130.22C84.1567 130.17 84.1335 130.108 84.1295 130.044C84.1255 129.98 84.141 129.916 84.1738 129.861C84.2066 129.806 84.2552 129.762 84.3134 129.734C84.3716 129.707 84.4366 129.698 84.5 129.708C85.0547 129.82 85.812 130.196 86.772 130.836C89.6734 126.26 93.372 123.764 97.868 123.348C103.564 122.82 107.436 126.212 108.428 131.708ZM104.46 133.356L95.564 133.532C95.4106 133.536 95.2593 133.569 95.1188 133.63C94.9783 133.692 94.8513 133.781 94.7451 133.891C94.6389 134.002 94.5555 134.133 94.4997 134.276C94.4439 134.419 94.4169 134.571 94.42 134.724V134.876C94.4564 136.737 95.0812 138.509 96.1569 139.804C97.2326 141.099 98.6711 141.81 100.156 141.78H100.188C101.673 141.752 103.082 140.986 104.107 139.651C105.131 138.315 105.687 136.52 105.652 134.66V134.508C105.65 134.354 105.617 134.202 105.556 134.061C105.495 133.919 105.407 133.791 105.296 133.684C105.185 133.577 105.054 133.493 104.911 133.437C104.767 133.381 104.614 133.353 104.46 133.356Z" fill="#161321"/>
<path d="M168.508 128.645C168.833 128.399 169.113 128.346 169.348 128.485C169.383 128.508 169.411 128.541 169.428 128.579C169.445 128.618 169.451 128.66 169.445 128.702C169.44 128.744 169.422 128.783 169.395 128.816C169.368 128.848 169.332 128.872 169.292 128.885C167.841 129.322 166.518 129.999 165.324 130.917C165.182 131.028 165.08 131.183 165.032 131.357C164.984 131.53 164.992 131.715 165.057 131.884C165.121 132.053 165.237 132.196 165.389 132.294C165.541 132.392 165.719 132.439 165.9 132.429L168.116 132.285C168.905 132.237 168.985 132.45 168.356 132.925C167.529 133.543 166.652 134.066 165.724 134.493C165.452 134.615 165.289 134.826 165.236 135.125C164.884 137.178 164.116 138.85 162.932 140.141C165.332 133.741 163.004 128.565 156.252 126.757C155.654 126.367 154.996 126.194 154.276 126.237C153.78 126.263 153.769 126.351 154.244 126.501L156.036 127.061C158.308 128.202 159.633 129.877 160.012 132.085C161.046 138.159 158.494 142.138 152.356 144.021C147.892 143.583 144.948 140.927 143.524 136.053C143.076 122.541 156.524 120.037 164.228 129.445C164.414 129.669 164.646 129.741 164.924 129.661L168.508 128.645ZM151.98 141.421C154.348 140.669 156.556 140.301 156.948 137.605C157.892 131.221 147.468 129.605 146.924 135.493C146.724 137.709 149.004 142.365 151.98 141.421Z" fill="#161321"/>
<path d="M156.252 126.757C156.108 126.874 156.036 126.975 156.036 127.061L154.244 126.501C153.769 126.351 153.78 126.263 154.276 126.237C154.996 126.194 155.654 126.367 156.252 126.757Z" fill="#31A3A6"/>
<path d="M156.251 126.756C163.003 128.564 165.331 133.74 162.931 140.14C160.339 144.308 157.043 143.9 153.043 144.356C152.809 144.298 152.579 144.186 152.355 144.02C158.494 142.138 161.046 138.159 160.011 132.084C159.633 129.876 158.307 128.202 156.035 127.06C156.035 126.975 156.107 126.874 156.251 126.756Z" fill="#FEFDFE"/>
<path d="M101.547 143.308C101.291 143.522 101.537 143.655 102.283 143.708C98.3712 144.268 90.8352 142.356 89.0672 139.172C87.3552 134.89 88.4058 131.362 92.2192 128.588C93.5232 127.644 98.7791 125.684 97.5471 129.596C97.4031 130.05 97.2165 130.066 96.9871 129.644L96.5072 128.764C96.4245 128.614 96.3086 128.484 96.1685 128.384C96.0284 128.285 95.8677 128.219 95.6986 128.191C95.5296 128.163 95.3567 128.175 95.1931 128.224C95.0296 128.274 94.8798 128.36 94.7552 128.476C88.8592 133.924 93.4831 144.596 101.547 143.308Z" fill="#FEFDFE"/>
<path d="M85.6035 166.364C79.4008 161.052 75.1181 154.532 72.7555 146.804C72.6648 146.511 72.4675 146.391 72.1635 146.444L67.8115 147.22L72.3475 145.188C72.6301 145.06 72.7475 144.844 72.6995 144.54C71.8835 139.028 71.9315 130.836 63.3955 133.076C63.2057 133.129 63.0409 133.248 62.9304 133.411C62.8199 133.574 62.7708 133.771 62.7919 133.967C62.8131 134.163 62.903 134.345 63.0458 134.48C63.1885 134.616 63.3748 134.697 63.5715 134.708C64.9208 134.767 66.1795 135.055 67.3475 135.572C67.4775 135.63 67.5817 135.734 67.6407 135.864C67.6996 135.993 67.7092 136.14 67.6675 136.276C67.2355 137.674 66.4941 138.866 65.4435 139.852C65.2408 140.039 65.0035 140.124 64.7315 140.108C60.7635 139.828 57.8515 136.196 60.3075 132.572C61.5395 130.756 65.0115 128.468 67.2995 129.996C72.3315 133.348 74.4115 140.988 74.8115 146.524C74.8434 146.981 74.9321 147.43 75.0755 147.86C76.0995 150.975 77.7048 154.092 79.8915 157.212C80.6541 158.3 81.1342 159.508 81.3315 160.836C81.3742 161.119 81.5075 161.346 81.7315 161.516C83.5822 162.919 84.8728 164.535 85.6035 166.364Z" fill="#8F4631"/>
<path d="M108.428 131.709C109.255 133.33 109.29 135.533 108.532 138.317C107.695 141.383 105.874 143.101 103.068 143.469C102.892 143.634 102.631 143.714 102.284 143.709C101.538 143.655 101.292 143.522 101.548 143.309C106.322 141.495 108.615 137.629 108.428 131.709Z" fill="#D7D2D2"/>
<path d="M151.98 141.421C149.004 142.365 146.724 137.709 146.924 135.493C147.468 129.605 157.892 131.221 156.948 137.605C156.556 140.301 154.348 140.669 151.98 141.421Z" fill="#35293C"/>
<path d="M104.46 133.357C104.614 133.353 104.767 133.381 104.911 133.437C105.054 133.493 105.185 133.577 105.296 133.684C105.407 133.791 105.495 133.919 105.556 134.061C105.618 134.202 105.65 134.354 105.652 134.509V134.661C105.687 136.52 105.132 138.315 104.107 139.651C103.082 140.986 101.673 141.752 100.188 141.78H100.156C98.6713 141.81 97.2327 141.099 96.157 139.804C95.0813 138.509 94.4566 136.737 94.4202 134.876V134.724C94.417 134.571 94.444 134.419 94.4998 134.276C94.5556 134.133 94.639 134.002 94.7452 133.891C94.8515 133.781 94.9784 133.692 95.119 133.631C95.2595 133.569 95.4108 133.536 95.5642 133.532L104.46 133.357Z" fill="#35293C"/>
<path d="M143.523 136.053C144.947 140.928 147.891 143.584 152.355 144.021C152.579 144.186 152.809 144.298 153.043 144.357L148.451 143.717C144.681 142.517 143.038 139.962 143.523 136.053Z" fill="#D7D2D2"/>
<path d="M125.444 138.997C125.834 139.386 126.052 139.528 126.1 139.421C126.794 142.258 126.207 144.293 124.34 145.525C123.66 144.333 122.076 137.157 125.444 138.997Z" fill="#FDBF9E"/>
<path d="M126.1 139.42C131.86 142.068 130.676 149.484 124.084 148.54C122.601 148.204 122.686 147.199 124.34 145.524C126.206 144.292 126.793 142.258 126.1 139.42Z" fill="#8F4631"/>
<path d="M85.168 139.867L82.3521 139.887C81.9015 139.89 81.5387 140.258 81.5418 140.708L81.5701 144.756C81.5732 145.207 81.9411 145.57 82.3918 145.566L85.2077 145.547C85.6584 145.544 86.0211 145.176 86.018 144.725L85.9897 140.677C85.9866 140.226 85.6187 139.864 85.168 139.867Z" fill="#FDBF9E"/>
<path d="M84.0673 151.605C80.3713 149.509 82.4753 145.613 85.0993 147.173C85.3819 147.343 85.5313 147.597 85.5473 147.933L85.6993 150.589C85.7102 150.785 85.6682 150.981 85.5775 151.155C85.4869 151.329 85.3511 151.476 85.1842 151.58C85.0174 151.684 84.8256 151.741 84.6291 151.745C84.4326 151.75 84.2386 151.701 84.0673 151.605Z" fill="#D17857"/>
<path d="M111.052 152.701L111.812 153.413C112.868 160.221 129.876 159.917 134.708 159.101C139.471 158.306 142.62 156.178 144.156 152.717C144.833 152.338 145.569 152.386 146.364 152.861C146.604 153.005 146.737 153.216 146.764 153.493C147.148 158.384 145.497 162.512 141.812 165.877C135.108 163.981 127.972 163.437 121.348 165.837C119.572 166.477 117.647 167.008 115.572 167.429C110.708 164.218 108.241 159.29 108.172 152.645C109.345 152.389 110.305 152.408 111.052 152.701Z" fill="#2F030D"/>
<path d="M144.156 152.716C142.62 156.178 139.47 158.306 134.708 159.1C129.876 159.916 112.868 160.22 111.812 153.412C112.126 153.215 112.54 153.17 113.052 153.276C123.084 155.404 133.452 155.218 144.156 152.716Z" fill="#FEFDFE"/>
<path d="M141.812 165.877C141.828 165.957 141.844 166.034 141.86 166.109C135.284 171.365 122.7 171.805 115.572 167.429C117.647 167.007 119.572 166.477 121.348 165.837C127.972 163.437 135.108 163.981 141.812 165.877Z" fill="#5C0B16"/>
<path d="M134.348 179.277L134.62 184.917C134.639 185.259 134.77 185.585 134.992 185.845C135.215 186.105 135.517 186.285 135.852 186.357L143.972 188.069C144.137 188.138 144.089 188.327 143.828 188.637C137.26 201.909 121.26 202.373 112.02 191.653C110.98 190.447 110.308 189.295 110.004 188.197L117.9 186.477C117.404 187.538 116.116 188.013 114.036 187.901C112.553 187.815 111.905 188.511 112.092 189.989C112.564 193.701 120.852 197.293 124.02 197.853C124.356 197.911 124.532 197.77 124.548 197.429L124.572 197.061C124.576 196.956 124.621 196.858 124.696 196.785C124.772 196.712 124.874 196.67 124.98 196.669L129.02 196.581C129.144 196.578 129.266 196.547 129.377 196.491C129.488 196.436 129.586 196.356 129.662 196.258C129.739 196.16 129.793 196.046 129.82 195.925C129.847 195.804 129.847 195.678 129.82 195.557C129.025 192.053 127.577 188.741 125.476 185.621C123.876 183.253 122.017 182.442 119.9 183.189L120.084 179.381C124.356 179.978 128.612 180.021 132.852 179.509L134.348 179.277Z" fill="#792F2C"/>
<path d="M117.9 186.477C119.164 185.949 119.831 184.853 119.9 183.189C122.017 182.442 123.876 183.253 125.476 185.621C127.577 188.741 129.025 192.053 129.82 195.557C129.847 195.678 129.847 195.804 129.82 195.925C129.793 196.046 129.739 196.16 129.662 196.258C129.586 196.356 129.488 196.436 129.377 196.492C129.266 196.547 129.144 196.578 129.02 196.581L124.98 196.669C124.874 196.671 124.772 196.712 124.696 196.785C124.621 196.858 124.576 196.957 124.572 197.061L124.548 197.429C124.532 197.77 124.356 197.911 124.02 197.853C120.852 197.293 112.564 193.701 112.092 189.989C111.905 188.511 112.553 187.815 114.036 187.901C116.116 188.013 117.404 187.538 117.9 186.477Z" fill="#8F4631"/>
<path d="M143.973 188.069C158.093 190.981 163.837 201.173 168.749 214.093C161.41 218.098 154.101 221.103 146.821 223.109C143.722 218.965 140.658 215.674 137.629 213.237C133.949 210.287 129.722 208.018 124.949 206.429C117.405 203.917 112.077 202.141 108.093 195.429C106.866 193.354 105.466 191.581 103.893 190.109L109.653 188.285C109.501 188.773 109.357 189.077 109.549 189.573C113.125 199.029 123.037 202.181 132.309 200.461C139.237 199.165 142.261 195.597 145.325 189.757C145.421 189.559 145.389 189.389 145.229 189.245C144.834 188.893 144.367 188.69 143.829 188.637C144.09 188.327 144.138 188.138 143.973 188.069Z" fill="#216477"/>
<path d="M110.003 188.197C110.307 189.296 110.979 190.448 112.019 191.653C121.259 202.373 137.259 201.909 143.827 188.637C144.366 188.69 144.833 188.893 145.227 189.245C145.387 189.389 145.419 189.56 145.323 189.757C142.259 195.597 139.235 199.165 132.307 200.461C123.035 202.181 113.123 199.029 109.547 189.573C109.355 189.077 109.499 188.773 109.651 188.285C109.593 188.557 109.71 188.528 110.003 188.197Z" fill="#31A3A6"/>
<path d="M103.892 190.109C105.465 191.581 106.865 193.354 108.092 195.429C112.076 202.141 117.404 203.917 124.948 206.429C129.721 208.018 133.948 210.287 137.628 213.237C140.657 215.674 143.721 218.965 146.82 223.109C131.588 226.693 116.828 226.197 102.54 221.621C102.044 221.013 101.342 220.474 100.436 220.005C100.142 219.855 100.001 219.615 100.012 219.285C100.23 211.786 99.9823 204.309 99.2676 196.853C99.2417 196.595 99.3068 196.337 99.4516 196.125C99.6329 195.853 99.6196 195.639 99.4116 195.485C99.0383 195.202 98.793 195.287 98.6756 195.741C96.777 202.887 95.3956 210.135 94.5316 217.485C94.4996 217.767 94.345 217.869 94.0676 217.789C93.289 217.549 92.5343 217.469 91.8036 217.549C90.5183 216.77 89.1743 216.285 87.7716 216.093C87.3983 215.447 86.5076 214.701 85.0996 213.853C88.6196 204.453 93.8596 194.261 103.892 190.109Z" fill="#288390"/>
<path d="M102.54 221.621C98.7477 220.591 95.169 219.234 91.8037 217.549C92.5344 217.469 93.2891 217.549 94.0677 217.789C94.3451 217.869 94.4997 217.767 94.5317 217.485C95.3957 210.135 96.7771 202.887 98.6757 195.741C98.7931 195.287 99.0384 195.202 99.4117 195.485C99.6197 195.639 99.633 195.853 99.4517 196.125C99.3069 196.337 99.2418 196.595 99.2677 196.853C99.9824 204.309 100.23 211.786 100.012 219.285C100.001 219.615 100.142 219.855 100.436 220.005C101.342 220.474 102.044 221.013 102.54 221.621Z" fill="#216477"/>
</svg>
