<?xml version="1.0" encoding="UTF-8" standalone="no"?>
<svg
   enable-background="new"
   height="180"
   width="180"
   version="1.1"
   id="svg1"
   sodipodi:docname="avatardefault.svg"
   inkscape:version="1.4 (e7c3feb1, 2024-10-09)"
   xmlns:inkscape="http://www.inkscape.org/namespaces/inkscape"
   xmlns:sodipodi="http://sodipodi.sourceforge.net/DTD/sodipodi-0.dtd"
   xmlns="http://www.w3.org/2000/svg"
   xmlns:svg="http://www.w3.org/2000/svg">
  <defs
     id="defs1" />
  <sodipodi:namedview
     id="namedview1"
     pagecolor="#ffffff"
     bordercolor="#000000"
     borderopacity="0.25"
     inkscape:showpageshadow="2"
     inkscape:pageopacity="0.0"
     inkscape:pagecheckerboard="0"
     inkscape:deskcolor="#d1d1d1"
     inkscape:zoom="2.0806007"
     inkscape:cx="62.481954"
     inkscape:cy="89.637572"
     inkscape:window-width="1216"
     inkscape:window-height="760"
     inkscape:window-x="217"
     inkscape:window-y="25"
     inkscape:window-maximized="0"
     inkscape:current-layer="svg1" />
  <path
     d="m 103.5854,101.93209 c -0.60669,-0.19841 -4.441435,-1.92691 -2.0452,-9.211026 h -0.0344 c 6.24626,-6.433222 11.01967,-16.785138 11.01967,-26.976796 0,-15.670961 -10.4206,-23.886102 -22.531544,-23.886102 -12.118575,0 -22.48194,8.211325 -22.48194,23.886102 0,10.23363 4.746695,20.627518 11.031108,27.045478 2.449662,6.42559 -1.93073,8.810384 -2.846491,9.142344 -8.538591,2.76122 -31.766759,16.52766 -31.399258,36.57595 h 91.769135 c 0.40957,-19.15182 -17.96353,-31.58836 -32.48108,-36.57595 z M 179.68311,90.183105 A 89.500006,89.499991 0 0 1 90.183122,179.68311 89.500006,89.499991 0 0 1 0.68311386,90.183105 89.500006,89.499991 0 0 1 90.183122,0.68311383 89.500006,89.499991 0 0 1 179.68311,90.183105 Z"
     fill="#bebebe"
     id="path1"
     style="fill:#cccccc;stroke-width:3.81567" />
</svg>
